<?xml version="1.0" encoding="UTF-8" standalone="no"?>
<!-- Generator: Adobe Illustrator 13.0.0, SVG Export Plug-In . SVG Version: 6.00 Build 14948)  -->
<svg
   xmlns:dc="http://purl.org/dc/elements/1.1/"
   xmlns:cc="http://web.resource.org/cc/"
   xmlns:rdf="http://www.w3.org/1999/02/22-rdf-syntax-ns#"
   xmlns:svg="http://www.w3.org/2000/svg"
   xmlns="http://www.w3.org/2000/svg"
   xmlns:sodipodi="http://sodipodi.sourceforge.net/DTD/sodipodi-0.dtd"
   xmlns:inkscape="http://www.inkscape.org/namespaces/inkscape"
   version="1.1"
   x="0px"
   y="0px"
   width="55px"
   height="54.696px"
   viewBox="0 0 55 54.696"
   enable-background="new 0 0 55 54.696"
   xml:space="preserve"
   id="svg2"
   sodipodi:version="0.32"
   inkscape:version="0.45.1"
   sodipodi:docname="activity-journal.svg"
   sodipodi:docbase="/home/walter/Desktop/icons"
   inkscape:output_extension="org.inkscape.output.svg.inkscape"><metadata
   id="metadata18"><rdf:RDF><cc:Work
       rdf:about=""><dc:format>image/svg+xml</dc:format><dc:type
         rdf:resource="http://purl.org/dc/dcmitype/StillImage" /></cc:Work></rdf:RDF></metadata><defs
   id="defs16">
	
	
		
	
	
	
</defs><sodipodi:namedview
   inkscape:window-height="589"
   inkscape:window-width="910"
   inkscape:pageshadow="2"
   inkscape:pageopacity="0.0"
   guidetolerance="10.0"
   gridtolerance="10.0"
   objecttolerance="10.0"
   borderopacity="1.0"
   bordercolor="#666666"
   pagecolor="#ffffff"
   id="base"
   inkscape:zoom="7.7336552"
   inkscape:cx="27.5"
   inkscape:cy="27.230332"
   inkscape:window-x="0"
   inkscape:window-y="49"
   inkscape:current-layer="svg2" />

<path
   style="fill:#ffffff;stroke:#010101;stroke-width:3.5;stroke-linecap:round;stroke-linejoin:round"
   id="path5"
   d="M 41.074,24.17 L 41.074,43.809 C 41.074,46.216 39.607,47.962 36.92,47.962 L 8.676,47.962 L 8.676,6.733 L 36.92,6.733 C 38.982,6.733 41.074,8.799 41.074,10.885 L 41.074,11.958" /><line
   style="fill:none;stroke:#010101;stroke-width:3.5;stroke-linecap:round;stroke-linejoin:round"
   id="line7"
   y2="47.848"
   x2="17.559"
   y1="6.848"
   x1="17.559" /><path
   style="fill:none;stroke:#010101;stroke-width:3.5;stroke-linecap:round;stroke-linejoin:round"
   id="path9"
   d="M 4.177,14.848 C 4.177,14.848 6.176,15.515 8.176,15.515 C 10.176,15.515 12.177,14.848 12.177,14.848" /><path
   style="fill:none;stroke:#010101;stroke-width:3.5;stroke-linecap:round;stroke-linejoin:round"
   id="path11"
   d="M 4.177,27.848 C 4.177,27.848 6.01,28.515 8.343,28.515 C 10.676,28.515 12.177,27.848 12.177,27.848" /><path
   style="fill:none;stroke:#010101;stroke-width:3.5;stroke-linecap:round;stroke-linejoin:round"
   id="path13"
   d="M 4.177,40.514 C 4.177,40.514 5.842,41.181 8.509,41.181 C 11.176,41.181 12.177,40.514 12.177,40.514" />

<line
   style="fill:none;stroke:#010101;stroke-width:3.5;stroke-linecap:round;stroke-linejoin:round;stroke-miterlimit:4;stroke-dasharray:none"
   id="line2175"
   y2="23.610882"
   x2="41.074001"
   y1="12.740355"
   x1="41.074001" /></svg>